<svg xmlns="http://www.w3.org/2000/svg" viewBox="0 0 13 13" shape-rendering="crispEdges">
<rect width="13" height="13" fill="#f6f6f4"/>
<path fill="#101014" d="M2 2h3v1h-3zM1 3h1v1h-1zM5 3h1v1h-1zM1 4h1v1h-1zM5 4h1v1h-1zM1 5h1v1h-1zM5 5h1v1h-1zM1 6h1v1h-1zM5 6h1v1h-1zM1 7h1v1h-1zM5 7h1v1h-1zM1 8h1v1h-1zM5 8h1v1h-1zM2 9h3v1h-3zM4 10h2v1h-2zM7 2h4v1h-4zM7 3h1v1h-1zM11 3h1v1h-1zM7 4h1v1h-1zM11 4h1v1h-1zM7 5h1v1h-1zM11 5h1v1h-1zM7 6h4v1h-4zM7 7h1v1h-1zM10 7h1v1h-1zM7 8h1v1h-1zM11 8h1v1h-1zM7 9h1v1h-1zM11 9h1v1h-1z"/>
</svg>
